# xmcd CD database file
#
# Track frame offsets:
#	150
#	17442
#	30107
#	44667
#	58622
#	74812
#	87735
#	104215
#	116235
#	128815
#	146952
#	159680
#
# Disc length: 2344 seconds
#
# Revision: 0
# Processed by: cddbd v1.5.2PL0 Copyright (c) Steve Scherf et al.
# Submitted via: CDex 1.51
#
DISCID=b909260c
DTITLE=Pelz, Stefanie - Finger Magics
DYEAR=1980
DGENRE=Jazz
TTITLE0=As Time goes By
TTITLE1=YSou Are The Sunshine Of My Heart
TTITLE2=Fly Me To The Moon
TTITLE3=Misty
TTITLE4=How Deep Is Your Love
TTITLE5=Killing Me Softly With His Song
TTITLE6=Ebb Tide
TTITLE7=The Way We Were
TTITLE8=Sunrise Sunset
TTITLE9=Copacabana
TTITLE10=Here Comes The Sun
TTITLE11=Honesty
EXTD=YEAR: 1980
EXTT0=
EXTT1=
EXTT2=
EXTT3=
EXTT4=
EXTT5=
EXTT6=
EXTT7=
EXTT8=
EXTT9=
EXTT10=
EXTT11=
PLAYORDER=
